<mxfile host="app.diagrams.net" modified="2020-11-25T07:40:13.603Z" agent="5.0 (Windows NT 10.0; Win64; x64) AppleWebKit/537.36 (KHTML, like Gecko) Chrome/86.0.4240.198 Safari/537.36" etag="WIMxeVwmPl54KsA61qem" version="13.10.0" type="github">
  <diagram id="9ESSx9L5nk-EN09J3gFf" name="Page-1">
    <mxGraphModel dx="2098" dy="1585" grid="1" gridSize="10" guides="1" tooltips="1" connect="1" arrows="1" fold="1" page="1" pageScale="1" pageWidth="850" pageHeight="1100" math="0" shadow="0">
      <root>
        <mxCell id="0" />
        <mxCell id="1" parent="0" />
        <mxCell id="eB8fI34A4o4MzYs-70v9-1" value="rounded=0; whiteSpace=wrap; html=1;" style="rounded=0;whiteSpace=wrap;html=1;" vertex="1" parent="1">
          <mxGeometry x="40" y="40" width="120" height="120" as="geometry" />
        </mxCell>
        <mxCell id="eB8fI34A4o4MzYs-70v9-2" value="rounded=1; whiteSpace=wrap; html=1;" style="rounded=1;whiteSpace=wrap;html=1;" vertex="1" parent="1">
          <mxGeometry x="40" y="200" width="120" height="120" as="geometry" />
        </mxCell>
        <mxCell id="eB8fI34A4o4MzYs-70v9-3" value="text; html=1; strokeColor=none; fillColor=none; align=center; verticalAlign=middle; whiteSpace=wrap; rounded=0;" style="text;html=1;strokeColor=none;fillColor=none;align=center;verticalAlign=middle;whiteSpace=wrap;rounded=0;" vertex="1" parent="1">
          <mxGeometry x="40" y="360" width="120" height="120" as="geometry" />
        </mxCell>
        <mxCell id="eB8fI34A4o4MzYs-70v9-4" value="&lt;h1&gt;Heading&lt;/h1&gt;&lt;p&gt;text; html=1; strokeColor=none; fillColor=none; spacing=5; spacingTop=-20; whiteSpace=wrap; overflow=hidden; rounded=0;&lt;/p&gt;" style="text;html=1;strokeColor=none;fillColor=none;spacing=10;spacingTop=-30;whiteSpace=wrap;overflow=hidden;rounded=0;" vertex="1" parent="1">
          <mxGeometry x="40" y="520" width="120" height="160" as="geometry" />
        </mxCell>
        <mxCell id="eB8fI34A4o4MzYs-70v9-5" value="ellipse; whiteSpace=wrap; html=1;" style="ellipse;whiteSpace=wrap;html=1;" vertex="1" parent="1">
          <mxGeometry x="40" y="720" width="120" height="120" as="geometry" />
        </mxCell>
        <mxCell id="eB8fI34A4o4MzYs-70v9-6" value="Vertical Flow Layout" style="swimlane;html=1;startSize=20;horizontal=1;childLayout=flowLayout;flowOrientation=north;resizable=0;interRankCellSpacing=50;containerType=tree;" vertex="1" parent="1">
          <mxGeometry x="300" y="650" width="270" height="280" as="geometry">
            <mxRectangle x="290" y="620" width="150" height="20" as="alternateBounds" />
          </mxGeometry>
        </mxCell>
        <mxCell id="eB8fI34A4o4MzYs-70v9-7" value="Start" style="whiteSpace=wrap;html=1;" vertex="1" parent="eB8fI34A4o4MzYs-70v9-6">
          <mxGeometry x="85" y="40" width="100" height="40" as="geometry" />
        </mxCell>
        <mxCell id="eB8fI34A4o4MzYs-70v9-8" value="Task" style="whiteSpace=wrap;html=1;" vertex="1" parent="eB8fI34A4o4MzYs-70v9-6">
          <mxGeometry x="20" y="130" width="100" height="40" as="geometry" />
        </mxCell>
        <mxCell id="eB8fI34A4o4MzYs-70v9-9" value="" style="html=1;curved=1;noEdgeStyle=1;orthogonal=1;" edge="1" parent="eB8fI34A4o4MzYs-70v9-6" source="eB8fI34A4o4MzYs-70v9-7" target="eB8fI34A4o4MzYs-70v9-8">
          <mxGeometry relative="1" as="geometry">
            <Array as="points">
              <mxPoint x="112.5" y="92" />
              <mxPoint x="70" y="118" />
            </Array>
          </mxGeometry>
        </mxCell>
        <mxCell id="eB8fI34A4o4MzYs-70v9-10" value="Task" style="whiteSpace=wrap;html=1;" vertex="1" parent="eB8fI34A4o4MzYs-70v9-6">
          <mxGeometry x="150" y="130" width="100" height="40" as="geometry" />
        </mxCell>
        <mxCell id="eB8fI34A4o4MzYs-70v9-11" value="" style="html=1;curved=1;noEdgeStyle=1;orthogonal=1;" edge="1" parent="eB8fI34A4o4MzYs-70v9-6" source="eB8fI34A4o4MzYs-70v9-7" target="eB8fI34A4o4MzYs-70v9-10">
          <mxGeometry relative="1" as="geometry">
            <Array as="points">
              <mxPoint x="157.5" y="92" />
              <mxPoint x="200" y="118" />
            </Array>
          </mxGeometry>
        </mxCell>
        <mxCell id="eB8fI34A4o4MzYs-70v9-12" value="End" style="whiteSpace=wrap;html=1;" vertex="1" parent="eB8fI34A4o4MzYs-70v9-6">
          <mxGeometry x="85" y="220" width="100" height="40" as="geometry" />
        </mxCell>
        <mxCell id="eB8fI34A4o4MzYs-70v9-13" value="" style="html=1;curved=1;noEdgeStyle=1;orthogonal=1;" edge="1" parent="eB8fI34A4o4MzYs-70v9-6" source="eB8fI34A4o4MzYs-70v9-8" target="eB8fI34A4o4MzYs-70v9-12">
          <mxGeometry relative="1" as="geometry">
            <Array as="points">
              <mxPoint x="70" y="182" />
              <mxPoint x="112.5" y="208" />
            </Array>
          </mxGeometry>
        </mxCell>
        <mxCell id="eB8fI34A4o4MzYs-70v9-14" value="" style="html=1;curved=1;noEdgeStyle=1;orthogonal=1;" edge="1" parent="eB8fI34A4o4MzYs-70v9-6" source="eB8fI34A4o4MzYs-70v9-10" target="eB8fI34A4o4MzYs-70v9-12">
          <mxGeometry relative="1" as="geometry">
            <Array as="points">
              <mxPoint x="200" y="182" />
              <mxPoint x="157.5" y="208" />
            </Array>
          </mxGeometry>
        </mxCell>
      </root>
    </mxGraphModel>
  </diagram>
</mxfile>
